{
	"asset":{
		"generator":"Khronos glTF Blender I/O v4.3.47",
		"version":"2.0"
	},
	"scene":0,
	"scenes":[
		{
			"name":"Scene",
			"nodes":[
				0
			]
		}
	],
	"nodes":[
		{
			"mesh":0,
			"name":"Curve",
			"rotation":[
				0.7071068286895752,
				0,
				0,
				0.7071068286895752
			],
			"scale":[
				14.825355529785156,
				14.825355529785156,
				14.825355529785156
			],
			"translation":[
				-0.6584042310714722,
				2.4885504245758057,
				-2.213634729385376
			]
		}
	],
	"materials":[
		{
			"doubleSided":true,
			"name":"Material.002",
			"pbrMetallicRoughness":{
				"baseColorFactor":[
					0.8069474101066589,
					1,
					0,
					1
				]
			}
		}
	],
	"meshes":[
		{
			"name":"Curve",
			"primitives":[
				{
					"attributes":{
						"POSITION":0,
						"NORMAL":1,
						"TEXCOORD_0":2
					},
					"indices":3,
					"material":0
				}
			]
		}
	],
	"accessors":[
		{
			"bufferView":0,
			"componentType":5126,
			"count":30604,
			"max":[
				0.15811724960803986,
				0.014921770431101322,
				0.14695674180984497
			],
			"min":[
				-0.10986625403165817,
				-0.005078245885670185,
				-0.1457061767578125
			],
			"type":"VEC3"
		},
		{
			"bufferView":1,
			"componentType":5126,
			"count":30604,
			"type":"VEC3"
		},
		{
			"bufferView":2,
			"componentType":5126,
			"count":30604,
			"type":"VEC2"
		},
		{
			"bufferView":3,
			"componentType":5123,
			"count":62004,
			"type":"SCALAR"
		}
	],
	"bufferViews":[
		{
			"buffer":0,
			"byteLength":367248,
			"byteOffset":0,
			"target":34962
		},
		{
			"buffer":0,
			"byteLength":367248,
			"byteOffset":367248,
			"target":34962
		},
		{
			"buffer":0,
			"byteLength":244832,
			"byteOffset":734496,
			"target":34962
		},
		{
			"buffer":0,
			"byteLength":124008,
			"byteOffset":979328,
			"target":34963
		}
	],
	"buffers":[
		{
			"byteLength":1103336,
			"uri":"afrobrasil.bin"
		}
	]
}
