{
	"asset":{
		"generator":"Khronos glTF Blender I/O v4.3.47",
		"version":"2.0"
	},
	"scene":0,
	"scenes":[
		{
			"name":"Scene",
			"nodes":[
				0
			]
		}
	],
	"nodes":[
		{
			"mesh":0,
			"name":"Cylinder",
			"rotation":[
				0,
				0,
				-0.7392297387123108,
				0.6734533905982971
			],
			"scale":[
				0.4057965874671936,
				0.4057965874671936,
				0.405796617269516
			],
			"translation":[
				-0.042079389095306396,
				0.7779881358146667,
				-0.052507635205984116
			]
		}
	],
	"materials":[
		{
			"doubleSided":true,
			"name":"Material.005",
			"pbrMetallicRoughness":{
				"baseColorFactor":[
					0.06300916522741318,
					0.2462015151977539,
					0.5271152853965759,
					1
				],
				"metallicFactor":0,
				"roughnessFactor":0.5
			}
		},
		{
			"doubleSided":true,
			"name":"Material.004",
			"pbrMetallicRoughness":{
				"baseColorFactor":[
					0.9643680453300476,
					0.4978679120540619,
					0.16473159193992615,
					1
				],
				"metallicFactor":0,
				"roughnessFactor":0.5
			}
		},
		{
			"doubleSided":true,
			"name":"Material.006",
			"pbrMetallicRoughness":{
				"baseColorFactor":[
					0.06662557274103165,
					0.04518626630306244,
					0.028426051139831543,
					1
				],
				"metallicFactor":0,
				"roughnessFactor":0.5
			}
		},
		{
			"doubleSided":true,
			"name":"Material.003",
			"pbrMetallicRoughness":{
				"baseColorFactor":[
					0.7605600357055664,
					0.6843949556350708,
					0.5062660574913025,
					1
				],
				"metallicFactor":0,
				"roughnessFactor":0.5
			}
		}
	],
	"meshes":[
		{
			"name":"Cylinder",
			"primitives":[
				{
					"attributes":{
						"POSITION":0,
						"NORMAL":1,
						"TEXCOORD_0":2
					},
					"indices":3,
					"material":0
				},
				{
					"attributes":{
						"POSITION":4,
						"NORMAL":5,
						"TEXCOORD_0":6
					},
					"indices":7,
					"material":1
				},
				{
					"attributes":{
						"POSITION":8,
						"NORMAL":9,
						"TEXCOORD_0":10
					},
					"indices":11,
					"material":2
				},
				{
					"attributes":{
						"POSITION":12,
						"NORMAL":13,
						"TEXCOORD_0":14
					},
					"indices":15,
					"material":3
				}
			]
		}
	],
	"accessors":[
		{
			"bufferView":0,
			"componentType":5126,
			"count":128,
			"max":[
				1.9096425771713257,
				3.048717737197876,
				1.0873210430145264
			],
			"min":[
				-0.07470822334289551,
				-1.608177900314331,
				-0.8970299959182739
			],
			"type":"VEC3"
		},
		{
			"bufferView":1,
			"componentType":5126,
			"count":128,
			"type":"VEC3"
		},
		{
			"bufferView":2,
			"componentType":5126,
			"count":128,
			"type":"VEC2"
		},
		{
			"bufferView":3,
			"componentType":5123,
			"count":192,
			"type":"SCALAR"
		},
		{
			"bufferView":4,
			"componentType":5126,
			"count":1472,
			"max":[
				2.0337870121002197,
				3.3721249103546143,
				2.3930504322052
			],
			"min":[
				-2.1774227619171143,
				-2.356292724609375,
				-3.3747100830078125
			],
			"type":"VEC3"
		},
		{
			"bufferView":5,
			"componentType":5126,
			"count":1472,
			"type":"VEC3"
		},
		{
			"bufferView":6,
			"componentType":5126,
			"count":1472,
			"type":"VEC2"
		},
		{
			"bufferView":7,
			"componentType":5123,
			"count":2460,
			"type":"SCALAR"
		},
		{
			"bufferView":8,
			"componentType":5126,
			"count":128,
			"max":[
				1.922581434249878,
				-1.608177661895752,
				1.1110363006591797
			],
			"min":[
				-0.10920006036758423,
				-1.7414350509643555,
				-0.920745313167572
			],
			"type":"VEC3"
		},
		{
			"bufferView":9,
			"componentType":5126,
			"count":128,
			"type":"VEC3"
		},
		{
			"bufferView":10,
			"componentType":5126,
			"count":128,
			"type":"VEC2"
		},
		{
			"bufferView":11,
			"componentType":5123,
			"count":192,
			"type":"SCALAR"
		},
		{
			"bufferView":12,
			"componentType":5126,
			"count":576,
			"max":[
				2.0337870121002197,
				-0.8395298719406128,
				2.840258836746216
			],
			"min":[
				-2.439316749572754,
				-2.6607961654663086,
				-1.0278472900390625
			],
			"type":"VEC3"
		},
		{
			"bufferView":13,
			"componentType":5126,
			"count":576,
			"type":"VEC3"
		},
		{
			"bufferView":14,
			"componentType":5126,
			"count":576,
			"type":"VEC2"
		},
		{
			"bufferView":15,
			"componentType":5123,
			"count":948,
			"type":"SCALAR"
		}
	],
	"bufferViews":[
		{
			"buffer":0,
			"byteLength":1536,
			"byteOffset":0,
			"target":34962
		},
		{
			"buffer":0,
			"byteLength":1536,
			"byteOffset":1536,
			"target":34962
		},
		{
			"buffer":0,
			"byteLength":1024,
			"byteOffset":3072,
			"target":34962
		},
		{
			"buffer":0,
			"byteLength":384,
			"byteOffset":4096,
			"target":34963
		},
		{
			"buffer":0,
			"byteLength":17664,
			"byteOffset":4480,
			"target":34962
		},
		{
			"buffer":0,
			"byteLength":17664,
			"byteOffset":22144,
			"target":34962
		},
		{
			"buffer":0,
			"byteLength":11776,
			"byteOffset":39808,
			"target":34962
		},
		{
			"buffer":0,
			"byteLength":4920,
			"byteOffset":51584,
			"target":34963
		},
		{
			"buffer":0,
			"byteLength":1536,
			"byteOffset":56504,
			"target":34962
		},
		{
			"buffer":0,
			"byteLength":1536,
			"byteOffset":58040,
			"target":34962
		},
		{
			"buffer":0,
			"byteLength":1024,
			"byteOffset":59576,
			"target":34962
		},
		{
			"buffer":0,
			"byteLength":384,
			"byteOffset":60600,
			"target":34963
		},
		{
			"buffer":0,
			"byteLength":6912,
			"byteOffset":60984,
			"target":34962
		},
		{
			"buffer":0,
			"byteLength":6912,
			"byteOffset":67896,
			"target":34962
		},
		{
			"buffer":0,
			"byteLength":4608,
			"byteOffset":74808,
			"target":34962
		},
		{
			"buffer":0,
			"byteLength":1896,
			"byteOffset":79416,
			"target":34963
		}
	],
	"buffers":[
		{
			"byteLength":81312,
			"uri":"umbigada.bin"
		}
	]
}
